<?xml version="1.0" standalone="no"?>
<!DOCTYPE svg PUBLIC "-//W3C//DTD SVG 20010904//EN"
 "http://www.w3.org/TR/2001/REC-SVG-20010904/DTD/svg10.dtd">
<svg version="1.0" xmlns="http://www.w3.org/2000/svg"
 width="700.000000pt" height="700.000000pt" viewBox="0 0 700.000000 700.000000"
 preserveAspectRatio="xMidYMid meet">
<metadata>
Created by potrace 1.11, written by Peter Selinger 2001-2013
</metadata>
<g transform="translate(0.000000,700.000000) scale(0.100000,-0.100000)"
fill="#000000" stroke="none">
<path d="M3280 6994 c-19 -2 -84 -9 -145 -14 -582 -56 -1176 -280 -1665 -630
-305 -218 -601 -514 -818 -817 -350 -489 -559 -1041 -634 -1668 -17 -142 -16
-585 0 -730 95 -809 422 -1503 977 -2074 573 -589 1299 -943 2140 -1043 166
-19 597 -17 770 5 821 104 1538 459 2105 1043 549 565 877 1263 972 2069 7 62
13 220 13 365 0 334 -25 545 -100 847 -151 606 -449 1139 -890 1592 -572 586
-1278 935 -2100 1037 -113 14 -549 27 -625 18z m570 -284 c529 -62 1010 -237
1440 -525 1133 -759 1668 -2131 1345 -3451 -284 -1168 -1204 -2087 -2370
-2369 -501 -121 -1017 -123 -1515 -4 -734 175 -1391 609 -1843 1218 -711 957
-834 2231 -322 3308 319 669 867 1215 1540 1534 349 165 717 263 1125 298 126
12 468 6 600 -9z"/>
<path d="M3200 6419 c-117 -12 -346 -55 -460 -86 -502 -136 -934 -386 -1301
-752 -180 -181 -253 -269 -391 -476 -255 -383 -421 -851 -467 -1319 -14 -138
-14 -432 -1 -567 49 -491 216 -953 491 -1359 119 -175 199 -271 363 -435 267
-266 525 -445 857 -596 692 -315 1494 -345 2213 -84 398 144 755 373 1067 684
450 449 730 1003 831 1642 19 125 22 182 22 429 0 247 -3 304 -22 429 -83 525
-290 998 -618 1411 -96 121 -361 381 -479 471 -466 354 -964 553 -1524 609
-121 12 -459 11 -581 -1z m1236 -1144 c184 -30 350 -98 489 -203 242 -180 380
-421 401 -700 5 -77 0 -144 -22 -272 l-6 -35 76 -29 c171 -65 333 -194 434
-345 225 -337 174 -760 -126 -1042 -38 -37 -91 -81 -117 -99 -71 -49 -220
-116 -315 -142 l-85 -23 -1665 0 -1665 0 -85 23 c-95 26 -244 93 -315 142 -72
49 -182 157 -231 226 -318 446 -111 1056 426 1260 52 20 104 40 116 44 18 7
22 19 27 90 26 328 315 645 676 741 254 67 511 41 743 -74 l107 -54 35 52
c150 227 440 400 744 444 93 14 261 12 358 -4z"/>
</g>
</svg>
