<?xml version="1.0" standalone="no"?>
<!DOCTYPE svg PUBLIC "-//W3C//DTD SVG 20010904//EN"
 "http://www.w3.org/TR/2001/REC-SVG-20010904/DTD/svg10.dtd">
<svg version="1.0" xmlns="http://www.w3.org/2000/svg"
 width="640.000000pt" height="640.000000pt" viewBox="0 0 640.000000 640.000000"
 preserveAspectRatio="xMidYMid meet">
<metadata>
Created by potrace 1.11, written by Peter Selinger 2001-2013
</metadata>
<g transform="translate(0.000000,640.000000) scale(0.100000,-0.100000)"
fill="#000000" stroke="none">
<path d="M2940 6390 c-948 -90 -1762 -546 -2314 -1293 -613 -832 -788 -1903
-470 -2881 266 -813 836 -1481 1595 -1866 341 -173 655 -271 1054 -327 168
-24 609 -24 787 0 508 68 959 236 1373 510 631 418 1095 1045 1305 1764 91
310 123 542 124 888 1 320 -21 520 -89 786 -308 1218 -1286 2141 -2515 2375
-231 43 -634 64 -850 44z m684 -270 c645 -98 1207 -380 1661 -835 398 -398
665 -881 794 -1436 51 -218 65 -359 65 -649 0 -290 -14 -431 -65 -649 -129
-555 -396 -1038 -794 -1436 -398 -398 -881 -665 -1436 -794 -218 -51 -359 -65
-649 -65 -290 0 -431 14 -649 65 -555 129 -1038 396 -1436 794 -398 398 -665
881 -794 1436 -51 218 -65 359 -65 649 0 235 3 296 22 419 61 392 183 742 367
1058 466 796 1260 1327 2165 1447 175 23 188 24 440 21 176 -3 270 -9 374 -25z"/>
<path d="M2940 5869 c-1274 -122 -2290 -1144 -2410 -2424 -137 -1469 951
-2777 2425 -2915 1469 -137 2777 951 2915 2425 137 1469 -951 2777 -2425 2915
-126 11 -379 11 -505 -1z m1775 -1219 c25 -22 52 -40 60 -40 46 0 43 -206 -8
-436 -14 -62 -30 -120 -35 -130 -5 -11 -15 -78 -21 -150 -6 -71 -19 -175 -28
-230 -9 -54 -17 -126 -19 -159 -2 -33 -13 -103 -24 -155 -20 -94 -32 -173 -49
-320 -5 -41 -16 -102 -25 -135 -14 -47 -34 -286 -37 -425 -1 -50 33 -246 46
-266 8 -13 15 -36 15 -51 0 -16 11 -45 25 -65 14 -20 25 -46 25 -57 0 -22 41
-47 112 -70 55 -18 88 -48 88 -80 0 -32 -21 -54 -73 -76 -34 -14 -40 -14 -74
1 -21 9 -57 16 -80 15 -37 -2 -46 3 -80 40 -21 23 -51 56 -67 73 -33 34 -73
146 -106 298 -24 107 -26 213 -9 433 6 83 12 173 14 200 1 28 8 69 14 93 7 23
11 61 9 85 -1 23 3 65 10 92 7 28 21 115 30 194 20 160 16 163 -42 32 -16 -36
-37 -78 -47 -92 -10 -14 -24 -44 -31 -67 -7 -23 -20 -44 -28 -47 -8 -3 -30
-33 -49 -68 -59 -108 -103 -168 -153 -207 -33 -26 -54 -37 -68 -33 -12 3 -38
-2 -59 -12 -39 -17 -39 -17 -104 14 -35 17 -71 38 -78 47 -8 10 -29 23 -47 31
-43 18 -165 202 -189 283 -8 30 -19 59 -24 65 -5 5 -9 22 -9 37 0 16 -11 50
-24 76 -13 26 -27 62 -31 79 -3 18 -11 35 -16 38 -5 4 -9 19 -9 35 0 26 -53
210 -68 234 -11 19 -24 -43 -29 -144 -3 -62 -11 -111 -18 -120 -7 -8 -16 -44
-19 -79 -4 -36 -16 -105 -26 -155 -10 -50 -21 -116 -23 -146 -3 -30 -12 -68
-21 -85 -9 -16 -16 -39 -16 -50 1 -36 -72 -399 -86 -433 -8 -18 -14 -56 -14
-85 0 -29 -6 -62 -14 -72 -15 -20 -8 -64 20 -135 13 -31 22 -40 40 -40 14 0
24 -6 24 -14 0 -7 8 -24 19 -37 10 -13 21 -42 25 -64 6 -35 3 -45 -25 -79 -40
-47 -99 -75 -160 -76 l-46 0 -37 91 c-25 61 -37 107 -38 140 0 27 -4 52 -9 55
-27 17 16 366 70 559 6 22 11 61 11 86 0 28 6 51 15 59 7 6 17 33 20 58 3 26
11 74 17 107 6 33 14 89 19 125 14 101 21 135 31 141 5 3 9 28 10 55 0 27 7
66 14 87 14 41 46 276 49 372 2 33 6 115 10 182 4 67 4 130 0 140 -5 10 -7 22
-6 27 1 5 -8 5 -21 1 -13 -4 -36 -8 -53 -9 -40 -3 -136 -35 -157 -54 -10 -8
-26 -12 -37 -9 -32 8 -355 -83 -463 -130 -60 -26 -65 -34 -49 -76 7 -17 5 -42
-5 -78 -16 -63 -61 -400 -62 -476 -1 -29 -8 -78 -16 -110 -8 -32 -22 -114 -31
-183 -8 -69 -23 -179 -32 -245 -23 -157 -21 -287 4 -450 8 -48 9 -50 66 -77
31 -15 57 -32 57 -37 0 -5 -7 -42 -16 -82 -18 -81 -39 -111 -75 -110 -13 0
-33 1 -44 1 -11 1 -33 -2 -48 -6 -24 -5 -33 -1 -62 32 -19 22 -34 46 -35 54 0
8 -7 24 -15 34 -8 11 -15 30 -15 43 0 13 -7 40 -16 61 -23 52 -29 509 -8 551
8 15 19 75 24 132 6 57 17 142 25 189 15 89 31 214 45 340 4 41 15 128 24 194
9 65 16 139 14 165 -3 46 -3 46 -41 49 -24 2 -45 -2 -55 -12 -18 -15 -165 -45
-216 -44 -16 0 -34 -6 -40 -14 -6 -8 -36 -20 -66 -26 -30 -7 -109 -32 -174
-57 -66 -24 -145 -50 -175 -56 -31 -6 -63 -20 -73 -30 -9 -11 -24 -19 -32 -19
-20 0 -112 46 -121 60 -4 6 -6 35 -6 66 0 64 30 135 64 152 20 10 93 21 177
27 48 3 118 25 131 42 7 7 31 13 56 13 24 0 57 7 73 15 17 9 40 13 55 9 13 -3
43 1 67 10 24 9 52 16 63 14 22 -3 154 37 200 60 17 8 48 17 70 19 50 4 124
20 195 43 30 10 84 27 120 38 36 12 108 31 160 43 52 11 122 31 155 44 33 13
76 26 96 29 19 3 53 15 74 26 22 11 55 20 75 20 19 0 62 7 95 15 103 25 140
20 217 -26 57 -35 68 -46 74 -75 5 -27 11 -34 29 -34 27 0 55 -24 55 -46 0 -8
7 -29 16 -46 9 -17 22 -78 30 -137 8 -58 30 -160 50 -226 51 -174 52 -181 42
-199 -7 -13 -3 -26 17 -51 14 -19 37 -69 51 -111 55 -168 149 -340 195 -356
16 -5 29 -14 29 -18 0 -16 31 -40 52 -40 21 0 138 114 138 135 0 7 8 23 19 36
10 13 32 51 49 85 17 33 37 66 46 73 9 8 16 20 16 28 0 7 32 75 70 149 39 75
70 142 70 149 0 22 91 288 106 309 8 11 14 33 14 48 0 15 7 45 15 65 8 21 29
94 45 163 17 69 37 135 45 146 8 12 17 57 21 100 6 62 12 83 30 101 13 13 28
23 33 23 5 0 31 -18 56 -40z"/>
</g>
</svg>
