<?xml version="1.0" standalone="no"?>
<!DOCTYPE svg PUBLIC "-//W3C//DTD SVG 20010904//EN"
 "http://www.w3.org/TR/2001/REC-SVG-20010904/DTD/svg10.dtd">
<svg version="1.0" xmlns="http://www.w3.org/2000/svg"
 width="640.000000pt" height="640.000000pt" viewBox="0 0 640.000000 640.000000"
 preserveAspectRatio="xMidYMid meet">
<metadata>
Created by potrace 1.11, written by Peter Selinger 2001-2013
</metadata>
<g transform="translate(0.000000,640.000000) scale(0.100000,-0.100000)"
fill="#000000" stroke="none">
<path d="M2990 6394 c-467 -43 -833 -142 -1209 -330 -199 -99 -323 -175 -496
-305 -1077 -807 -1536 -2198 -1148 -3479 98 -326 265 -667 457 -935 243 -340
559 -637 921 -864 122 -77 426 -227 555 -275 618 -227 1263 -266 1880 -115
1072 261 1928 1045 2282 2089 235 694 222 1442 -38 2150 -48 129 -198 433
-275 555 -222 352 -493 646 -822 889 -449 330 -945 528 -1512 602 -108 14
-506 26 -595 18z m601 -268 c797 -113 1496 -524 1974 -1162 304 -406 495 -882
567 -1414 17 -125 17 -575 0 -700 -48 -355 -137 -652 -287 -955 -290 -586
-754 -1050 -1340 -1340 -303 -150 -600 -239 -955 -287 -125 -17 -575 -17 -700
0 -683 92 -1265 376 -1735 847 -471 470 -755 1052 -847 1735 -17 125 -17 575
0 700 123 913 605 1670 1370 2153 354 224 808 384 1212 426 58 6 119 13 135
15 67 9 506 -4 606 -18z"/>
<path d="M2945 5870 c-635 -68 -1197 -334 -1639 -776 -421 -421 -680 -946
-768 -1559 -8 -56 -13 -185 -12 -345 0 -276 15 -403 70 -627 238 -968 999
-1729 1967 -1967 224 -55 351 -70 627 -70 345 -1 544 29 845 129 410 135 756
348 1059 651 408 408 662 909 758 1496 32 194 32 602 0 796 -96 587 -350 1088
-758 1496 -407 407 -915 665 -1491 757 -145 23 -520 34 -658 19z m1770 -1220
c25 -22 53 -40 60 -40 28 0 38 -77 27 -205 -10 -116 -52 -337 -70 -372 -5 -10
-15 -75 -21 -145 -7 -70 -19 -172 -28 -225 -9 -54 -17 -125 -19 -158 -2 -33
-15 -121 -29 -195 -40 -210 -45 -243 -45 -286 0 -21 -10 -73 -21 -114 -14 -51
-23 -131 -30 -250 -5 -96 -10 -179 -10 -185 -3 -35 33 -241 48 -272 10 -21 16
-46 15 -56 -2 -10 8 -35 21 -55 14 -21 27 -49 31 -63 4 -20 18 -31 58 -48 91
-37 122 -55 134 -79 18 -37 7 -57 -48 -87 -49 -27 -50 -27 -92 -11 -23 9 -61
16 -84 16 -36 0 -47 5 -79 42 -21 23 -51 55 -67 72 -21 21 -40 63 -63 134 -67
212 -76 310 -52 607 6 83 13 170 14 195 1 25 8 64 14 88 6 23 11 61 9 85 -1
23 3 65 10 92 13 52 50 335 44 335 -1 0 -25 -47 -51 -104 -27 -57 -53 -106
-59 -109 -5 -4 -15 -27 -22 -51 -7 -25 -20 -48 -29 -51 -9 -3 -28 -29 -43 -57
-77 -147 -185 -267 -228 -253 -10 3 -36 -2 -58 -10 -40 -16 -42 -16 -105 14
-35 17 -71 38 -78 47 -8 10 -29 23 -47 31 -42 18 -165 202 -189 283 -9 30 -19
62 -23 70 -4 8 -12 33 -18 55 -9 37 -43 128 -63 167 -5 10 -9 29 -9 43 0 27
-57 215 -70 228 -11 12 -30 -98 -30 -178 0 -49 -4 -76 -14 -84 -7 -6 -16 -41
-20 -77 -4 -36 -16 -108 -26 -161 -11 -52 -20 -116 -20 -142 0 -26 -7 -56 -15
-67 -8 -12 -19 -51 -25 -88 -6 -37 -21 -117 -34 -179 -13 -62 -27 -137 -31
-167 -4 -30 -12 -61 -19 -69 -6 -8 -14 -44 -18 -80 -4 -36 -10 -82 -13 -101
-5 -24 0 -53 15 -92 18 -49 25 -58 46 -58 15 0 24 -6 24 -15 0 -8 8 -23 19
-34 10 -10 21 -38 25 -62 6 -40 3 -48 -26 -83 -39 -47 -98 -75 -159 -76 l-46
0 -37 93 c-26 62 -38 108 -38 140 0 26 -4 50 -9 53 -27 16 15 359 66 544 8 30
15 75 15 99 0 25 6 52 15 61 8 9 19 48 24 86 15 111 31 216 42 262 5 23 9 51
9 62 0 11 5 20 10 20 6 0 10 24 10 54 0 29 6 69 14 88 15 35 47 266 51 373 2
33 6 115 10 182 4 67 4 130 0 140 -5 10 -7 22 -6 26 1 5 -9 5 -21 1 -13 -5
-36 -9 -53 -9 -37 -1 -135 -33 -156 -51 -8 -7 -28 -13 -45 -12 -28 2 -128 -24
-314 -79 -90 -26 -200 -71 -200 -82 0 -3 4 -21 9 -38 7 -22 5 -48 -5 -85 -17
-64 -61 -400 -62 -481 -1 -32 -9 -85 -17 -117 -12 -48 -61 -392 -81 -575 -2
-22 4 -107 13 -190 l18 -150 58 -28 59 -27 -7 -42 c-16 -93 -30 -131 -57 -151
-21 -16 -32 -18 -49 -11 -15 7 -35 7 -60 0 -37 -10 -40 -9 -73 30 -19 21 -35
45 -36 52 0 7 -6 23 -14 35 -8 12 -17 40 -21 62 -4 22 -11 46 -17 53 -7 7 -12
109 -14 262 -3 205 -2 256 10 279 8 15 20 77 26 137 6 60 18 145 26 189 13 74
22 146 44 350 5 44 16 125 24 180 17 106 20 173 10 199 -8 20 -62 21 -90 2
-22 -16 -167 -46 -220 -46 -21 0 -37 -6 -40 -14 -3 -8 -24 -18 -47 -21 -23 -4
-109 -32 -192 -62 -82 -30 -170 -57 -193 -60 -27 -4 -48 -13 -55 -24 -16 -26
-37 -24 -102 8 -48 24 -55 31 -56 58 -5 98 19 171 63 192 21 11 73 19 168 28
51 4 113 22 135 39 11 9 39 16 63 16 24 0 56 7 72 15 17 9 40 13 53 9 14 -3
41 2 62 10 20 9 51 15 69 15 33 -1 198 52 221 71 8 7 18 9 22 7 13 -8 199 31
233 48 16 8 38 15 50 15 12 0 33 6 48 14 15 7 88 28 162 45 74 18 153 40 175
50 23 10 58 21 80 25 22 4 57 16 79 27 22 10 56 19 75 19 20 1 63 7 96 15 102
25 141 20 215 -25 48 -30 68 -48 76 -72 8 -25 17 -34 38 -36 18 -2 30 -12 38
-30 5 -15 19 -47 29 -72 10 -25 21 -79 25 -120 7 -84 9 -90 89 -370 7 -25 9
-54 5 -65 -6 -14 -1 -30 17 -53 14 -18 36 -68 50 -110 30 -94 80 -203 129
-283 27 -46 43 -61 65 -66 20 -4 31 -13 35 -29 3 -13 9 -24 13 -24 3 0 16 -3
28 -6 18 -5 34 6 83 57 33 34 60 68 60 74 0 7 9 24 20 38 11 14 29 47 41 73
11 27 29 58 39 69 11 11 32 52 48 91 16 39 50 107 76 151 25 44 46 87 46 95 0
21 84 278 104 315 9 18 16 43 16 56 0 14 6 40 14 59 8 19 29 90 46 158 17 68
38 136 45 151 8 15 18 60 21 101 5 53 12 79 27 96 28 30 39 28 92 -18z"/>
</g>
</svg>
