<?xml version="1.0" encoding="UTF-8" standalone="no"?>
<!DOCTYPE svg PUBLIC "-//W3C//DTD SVG 1.1//EN" "http://www.w3.org/Graphics/SVG/1.1/DTD/svg11.dtd">
<svg version="1.1" xmlns="http://www.w3.org/2000/svg" xmlns:xlink="http://www.w3.org/1999/xlink" preserveAspectRatio="xMidYMid meet" viewBox="0 0 640 640" width="640" height="640"><defs><path d="M320 640C143.39 640 0 496.61 0 320C0 143.39 143.39 0 320 0C496.61 0 640 143.39 640 320C640 496.61 496.61 640 320 640Z" id="g1ntcCCxr5"></path><linearGradient id="gradienta73fzSLW4Q" gradientUnits="userSpaceOnUse" x1="546.29" y1="93.71" x2="31.47" y2="605.73"><stop style="stop-color: #590000;stop-opacity: 1" offset="0%"></stop><stop style="stop-color: #000c5f;stop-opacity: 1" offset="100%"></stop></linearGradient><path d="M320 601.68C164.54 601.68 38.32 475.46 38.32 320C38.32 164.54 164.54 38.32 320 38.32C475.46 38.32 601.68 164.54 601.68 320C601.68 475.46 475.46 601.68 320 601.68Z" id="akPjTuPc6"></path><path d="M173.22 422.19L169.72 421.74L166.26 421.17L162.86 420.47L159.5 419.66L156.2 418.73L152.96 417.69L149.78 416.54L146.66 415.28L143.6 413.92L140.61 412.46L137.7 410.89L134.86 409.23L132.09 407.47L129.41 405.62L126.8 403.68L124.28 401.65L121.85 399.54L119.51 397.35L117.27 395.07L115.12 392.72L113.07 390.3L111.12 387.8L109.28 385.24L107.55 382.61L105.92 379.91L104.41 377.15L103.02 374.33L101.74 371.46L100.59 368.53L99.57 365.55L98.67 362.53L97.9 359.45L97.26 356.34L96.76 353.18L96.4 349.98L96.18 346.75L96.11 343.48L96.18 340.21L96.4 336.98L96.76 333.78L97.26 330.62L97.9 327.51L98.67 324.43L99.57 321.41L100.59 318.43L101.74 315.5L103.02 312.63L104.41 309.81L105.92 307.05L107.55 304.35L109.28 301.72L111.12 299.16L113.07 296.66L115.12 294.24L117.27 291.89L119.51 289.61L121.85 287.42L124.28 285.31L126.8 283.28L129.41 281.34L132.09 279.49L134.86 277.73L137.7 276.07L140.61 274.5L143.6 273.04L146.66 271.68L149.78 270.42L152.96 269.27L156.2 268.23L159.5 267.3L161.39 266.85L161.46 263.67L161.68 260.44L162.04 257.24L162.54 254.08L163.17 250.96L163.94 247.89L164.84 244.86L165.87 241.88L167.02 238.96L168.29 236.08L169.69 233.27L171.2 230.51L172.82 227.81L174.56 225.18L176.4 222.61L178.35 220.12L180.39 217.69L182.54 215.34L184.79 213.07L187.13 210.88L189.56 208.76L192.08 206.74L194.68 204.8L197.37 202.95L200.13 201.19L202.97 199.53L205.89 197.96L208.88 196.5L211.93 195.13L215.05 193.87L218.24 192.72L221.48 191.68L224.78 190.76L228.13 189.94L231.54 189.25L234.99 188.68L238.49 188.23L242.03 187.9L245.62 187.7L249.23 187.64L252.85 187.7L256.43 187.9L259.98 188.23L263.48 188.68L266.93 189.25L270.33 189.94L273.69 190.76L276.99 191.68L280.23 192.72L283.41 193.87L286.54 195.13L289.59 196.5L292.58 197.96L295.49 199.53L298.34 201.19L301.1 202.95L301.35 203.12L302.36 201.44L304.31 198.48L306.39 195.6L308.58 192.79L310.88 190.06L313.3 187.42L315.83 184.86L318.46 182.39L321.19 180.02L324.02 177.74L326.95 175.55L329.97 173.47L333.09 171.49L336.28 169.62L339.56 167.86L342.92 166.21L346.36 164.68L349.87 163.27L353.45 161.97L357.1 160.8L360.81 159.76L364.59 158.84L368.42 158.06L372.3 157.42L376.24 156.91L380.23 156.55L384.25 156.32L388.33 156.25L392.4 156.32L396.43 156.55L400.41 156.91L404.35 157.42L408.23 158.06L412.06 158.84L415.84 159.76L419.55 160.8L423.2 161.97L426.78 163.27L430.29 164.68L433.73 166.21L437.09 167.86L440.37 169.62L443.57 171.49L446.68 173.47L449.7 175.55L452.63 177.74L455.46 180.02L458.19 182.39L460.83 184.86L463.35 187.42L465.77 190.06L468.08 192.79L470.27 195.6L472.34 198.48L474.29 201.44L476.12 204.48L477.81 207.58L479.38 210.75L480.82 213.98L482.11 217.28L483.27 220.63L484.28 224.03L485.14 227.49L485.86 231L486.42 234.55L486.83 238.15L487.07 241.78L487.15 245.46L487.07 249.13L486.83 252.77L486.42 256.37L485.86 259.92L485.14 263.43L484.28 266.89L483.87 268.25L487.04 269.27L490.22 270.42L493.34 271.68L496.4 273.04L499.39 274.5L502.3 276.07L505.14 277.73L507.91 279.49L510.59 281.34L513.2 283.28L515.72 285.31L518.15 287.42L520.49 289.61L522.73 291.89L524.88 294.24L526.93 296.66L528.88 299.16L530.72 301.72L532.45 304.35L534.08 307.05L535.59 309.81L536.98 312.63L538.26 315.5L539.41 318.43L540.43 321.41L541.33 324.43L542.1 327.51L542.74 330.62L543.24 333.78L543.6 336.98L543.82 340.21L543.89 343.48L543.82 346.75L543.6 349.98L543.24 353.18L542.74 356.34L542.1 359.45L541.33 362.53L540.43 365.55L539.41 368.53L538.26 371.46L536.98 374.33L535.59 377.15L534.08 379.91L532.45 382.61L530.72 385.24L528.88 387.8L526.93 390.3L524.88 392.72L522.73 395.07L520.49 397.35L518.15 399.54L515.72 401.65L513.2 403.68L510.59 405.62L507.91 407.47L505.14 409.23L502.3 410.89L499.39 412.46L496.4 413.92L493.34 415.28L490.22 416.54L487.04 417.69L483.8 418.73L480.5 419.66L477.14 420.47L473.74 421.17L470.28 421.74L466.78 422.19L463.24 422.51L459.66 422.71L456.04 422.78L452.42 422.71L448.84 422.51L447.5 422.39L447.5 422.78L183.96 422.78L180.34 422.71L176.76 422.51L173.22 422.19Z" id="ddhJl5nqN"></path></defs><g><g><g><use xlink:href="#g1ntcCCxr5" opacity="1" fill="url(#gradienta73fzSLW4Q)"></use><g><use xlink:href="#g1ntcCCxr5" opacity="1" fill-opacity="0" stroke="#000000" stroke-width="1" stroke-opacity="0"></use></g></g><g><use xlink:href="#akPjTuPc6" opacity="1" fill="#000000" fill-opacity="0"></use><g><use xlink:href="#akPjTuPc6" opacity="1" fill-opacity="0" stroke="#ffffff" stroke-width="27" stroke-opacity="1"></use></g></g><g><use xlink:href="#ddhJl5nqN" opacity="1" fill="#ffffff" fill-opacity="1"></use></g></g></g></svg>