<?xml version="1.0" encoding="UTF-8" standalone="no"?>
<!DOCTYPE svg PUBLIC "-//W3C//DTD SVG 1.1//EN" "http://www.w3.org/Graphics/SVG/1.1/DTD/svg11.dtd">
<svg version="1.1" xmlns="http://www.w3.org/2000/svg" xmlns:xlink="http://www.w3.org/1999/xlink" preserveAspectRatio="xMidYMid meet" viewBox="0 0 600 400" width="600" height="400"><defs><path d="M-647.94 896.59L-89 896.59L-610.5 1036.33L-647.94 896.59ZM-55.03 887.49L-55.03 752.83L-441.35 700.32L-441.35 700.32L-447.21 700.32L-501.51 646.02L-39.66 522.27L50.62 859.18L-55.03 887.49ZM-663.82 837.33L-679.44 779.04L-663.82 794.66L-663.82 837.33ZM-700.78 699.41L-634.94 681.77L-690.59 737.43L-700.78 699.41Z" id="a5eNz2SJZt"></path><linearGradient id="gradientb6fssKrc4b" gradientUnits="userSpaceOnUse" x1="-344.45" y1="655.82" x2="-131.31" y2="607.38"><stop style="stop-color: #270e49;stop-opacity: 1" offset="0%"></stop><stop style="stop-color: #181259;stop-opacity: 1" offset="100%"></stop></linearGradient><path d="M-652.18 896.09L-257.23 896.09L-454.7 1093.56L-652.18 896.09ZM-549.75 699.81L-549.75 727.74L-663.82 727.74L-663.82 884.45L-867.27 681L-663.82 477.55L-441.55 699.81L-549.75 699.81ZM-663.82 727.74L-549.75 727.74L-549.75 699.81L-663.82 727.74Z" id="avM2m7M9a"></path><linearGradient id="gradienta1Pp7IyFWd" gradientUnits="userSpaceOnUse" x1="-644.58" y1="544.63" x2="-567.03" y2="664.33"><stop style="stop-color: #590000;stop-opacity: 1" offset="0%"></stop><stop style="stop-color: #480929;stop-opacity: 1" offset="100%"></stop></linearGradient><path d="M-495.69 645.61L-440.82 700.48L-549.09 700.48L-549.09 884.07L-257.23 884.07L-249.05 892.25L-458.51 1101.72L-705.15 855.08L-663.15 813.08L-663.15 884.07L-549.09 884.07L-549.09 700.48L-551.03 700.96L-495.69 645.61Z" id="b813KQsqC7"></path><path d="M92 -211.92L204.42 -239.44L311.25 -239.44L692 -187.69L692 -46L92 -46L92 -211.92Z" id="a2JBmcZ2rj"></path><path d="M250 250L600 250L600 325L250 250ZM67 250L600 50L600 250L67 250Z" id="b2STaqGsmm"></path><linearGradient id="gradientb27yfgoGZ" gradientUnits="userSpaceOnUse" x1="560.83" y1="161.33" x2="308.83" y2="210.67"><stop style="stop-color: #181259;stop-opacity: 1" offset="0%"></stop><stop style="stop-color: #270e49;stop-opacity: 1" offset="100%"></stop></linearGradient><path d="M0 300L0 250L150 250L0 300ZM0 250L0 0L250 250L0 250Z" id="h7AaYunM80"></path><linearGradient id="gradientk1FZg22oza" gradientUnits="userSpaceOnUse" x1="31" y1="91" x2="133.67" y2="200"><stop style="stop-color: #590000;stop-opacity: 1" offset="0%"></stop><stop style="stop-color: #480929;stop-opacity: 1" offset="100%"></stop></linearGradient><path d="M225 225L250 250L200 250L150 250L175 225L200 200L225 225Z" id="g8TsaoWTKV"></path></defs><g><g><g><use xlink:href="#a5eNz2SJZt" opacity="1" fill="url(#gradientb6fssKrc4b)"></use></g><g><use xlink:href="#avM2m7M9a" opacity="1" fill="url(#gradienta1Pp7IyFWd)"></use></g><g><use xlink:href="#b813KQsqC7" opacity="1" fill="#31082c" fill-opacity="1"></use></g><g><use xlink:href="#a2JBmcZ2rj" opacity="1" fill="#000000" fill-opacity="1"></use><g><use xlink:href="#a2JBmcZ2rj" opacity="1" fill-opacity="0" stroke="#b002df" stroke-width="0" stroke-opacity="1"></use></g></g><g><use xlink:href="#b2STaqGsmm" opacity="1" fill="url(#gradientb27yfgoGZ)"></use></g><g><use xlink:href="#h7AaYunM80" opacity="1" fill="url(#gradientk1FZg22oza)"></use></g><g><use xlink:href="#g8TsaoWTKV" opacity="1" fill="#31082c" fill-opacity="1"></use></g></g></g></svg>