<?xml version="1.0" encoding="UTF-8" standalone="no"?>
<!DOCTYPE svg PUBLIC "-//W3C//DTD SVG 1.1//EN" "http://www.w3.org/Graphics/SVG/1.1/DTD/svg11.dtd">
<svg version="1.1" xmlns="http://www.w3.org/2000/svg" xmlns:xlink="http://www.w3.org/1999/xlink" preserveAspectRatio="xMidYMid meet" viewBox="0 0 640 640" width="120" height="120"><defs><path d="M320 640C143.39 640 0 496.61 0 320C0 143.39 143.39 0 320 0C496.61 0 640 143.39 640 320C640 496.61 496.61 640 320 640Z" id="b109WDbiSv"></path><linearGradient id="gradientaEB3ayk9" gradientUnits="userSpaceOnUse" x1="546.29" y1="93.71" x2="31.47" y2="605.73"><stop style="stop-color: #590000;stop-opacity: 1" offset="0%"></stop><stop style="stop-color: #000c5f;stop-opacity: 1" offset="100%"></stop></linearGradient><path d="M320 601.68C164.54 601.68 38.32 475.46 38.32 320C38.32 164.54 164.54 38.32 320 38.32C475.46 38.32 601.68 164.54 601.68 320C601.68 475.46 475.46 601.68 320 601.68Z" id="cnCyFjHuU"></path><path d="M149.47 159.33L149.72 159.35L149.97 159.39L150.22 159.43L150.46 159.49L150.7 159.55L150.93 159.62L151.16 159.71L151.39 159.8L151.61 159.9L151.83 160L152.04 160.12L152.25 160.24L152.45 160.37L152.65 160.51L152.84 160.66L153.03 160.81L153.2 160.97L153.38 161.14L153.54 161.31L153.7 161.49L153.86 161.67L154 161.86L154.14 162.06L154.27 162.26L154.4 162.47L154.51 162.68L154.62 162.9L154.72 163.12L154.81 163.35L154.89 163.58L154.96 163.81L155.03 164.05L155.08 164.3L155.13 164.54L155.16 164.79L155.19 165.04L155.2 165.3L155.21 165.56L155.21 261.84L158.66 258.91L162.64 255.82L166.85 252.8L171.28 249.88L175.92 247.04L180.77 244.3L185.82 241.65L191.07 239.1L196.51 236.66L202.14 234.32L207.94 232.08L213.92 229.96L220.06 227.96L226.36 226.07L232.81 224.3L239.41 222.65L246.15 221.14L253.03 219.75L260.04 218.49L267.17 217.37L274.41 216.39L281.77 215.56L289.23 214.86L296.79 214.32L304.44 213.93L312.18 213.69L320 213.61L327.82 213.69L335.56 213.93L343.21 214.32L350.77 214.86L358.23 215.56L365.59 216.39L372.83 217.37L379.96 218.49L386.97 219.75L393.85 221.14L400.59 222.65L407.19 224.3L413.64 226.07L419.94 227.96L426.08 229.96L432.06 232.08L437.86 234.32L443.49 236.66L448.93 239.1L454.18 241.65L459.23 244.3L464.08 247.04L468.72 249.88L473.15 252.8L477.36 255.82L481.34 258.91L484.79 261.84L484.79 173.19L484.8 172.94L484.81 172.68L484.84 172.43L484.87 172.18L484.92 171.93L484.97 171.69L485.04 171.45L485.11 171.22L485.19 170.99L485.28 170.76L485.38 170.54L485.49 170.32L485.6 170.11L485.73 169.9L485.86 169.7L486 169.5L486.14 169.31L486.3 169.13L486.46 168.95L486.62 168.78L486.8 168.61L486.97 168.45L487.16 168.3L487.35 168.15L487.55 168.01L487.75 167.88L487.96 167.76L488.17 167.64L488.39 167.53L488.61 167.44L488.84 167.34L489.07 167.26L489.3 167.19L489.54 167.13L489.78 167.07L490.03 167.03L490.28 166.99L490.53 166.97L490.78 166.95L491.04 166.94L503.54 166.94L503.8 166.95L504.05 166.97L504.31 166.99L504.56 167.03L504.8 167.07L505.04 167.13L505.28 167.19L505.52 167.26L505.75 167.34L505.97 167.44L506.2 167.53L506.41 167.64L506.63 167.76L506.83 167.88L507.04 168.01L507.23 168.15L507.42 168.3L507.61 168.45L507.79 168.61L507.96 168.78L508.13 168.95L508.29 169.13L508.44 169.31L508.59 169.5L508.72 169.7L508.86 169.9L508.98 170.11L509.09 170.32L509.2 170.54L509.3 170.76L509.39 170.99L509.47 171.22L509.55 171.45L509.61 171.69L509.66 171.93L509.71 172.18L509.75 172.43L509.77 172.68L509.79 172.94L509.79 173.19L509.79 421.46L509.66 421.46L509.63 421.9L509.16 424.4L508.38 426.87L507.31 429.32L505.93 431.73L504.27 434.1L502.33 436.44L500.11 438.75L497.62 441.01L494.87 443.23L491.86 445.41L488.59 447.54L485.09 449.63L481.34 451.67L477.36 453.65L473.15 455.58L468.72 457.45L464.08 459.27L459.23 461.03L454.18 462.73L448.93 464.36L443.49 465.93L437.86 467.43L432.06 468.86L426.08 470.22L419.94 471.5L413.64 472.71L407.19 473.85L400.59 474.9L393.85 475.87L386.97 476.76L379.96 477.57L372.83 478.28L365.59 478.91L358.23 479.45L350.77 479.89L343.21 480.24L335.56 480.49L327.82 480.64L320 480.69L312.18 480.64L304.44 480.49L296.79 480.24L289.23 479.89L281.77 479.45L274.41 478.91L267.17 478.28L260.04 477.57L253.03 476.76L246.15 475.87L239.41 474.9L232.81 473.85L226.36 472.71L220.06 471.5L213.92 470.22L207.94 468.86L202.14 467.43L196.51 465.93L191.07 464.36L185.82 462.73L180.77 461.03L175.92 459.27L171.28 457.45L166.85 455.58L162.64 453.65L158.66 451.67L154.91 449.63L151.41 447.54L148.14 445.41L145.13 443.23L142.38 441.01L139.89 438.75L137.67 436.44L135.73 434.1L134.07 431.73L132.69 429.32L131.62 426.87L130.84 424.4L130.37 421.9L130.34 421.46L130.21 421.46L130.21 309.31L130.37 305.36L130.44 304.75L130.39 304.56L130.34 304.32L130.29 304.07L130.25 303.82L130.23 303.57L130.21 303.31L130.21 303.06L130.21 165.56L130.21 165.3L130.23 165.04L130.25 164.79L130.29 164.54L130.34 164.3L130.39 164.05L130.45 163.81L130.53 163.58L130.61 163.35L130.7 163.12L130.8 162.9L130.91 162.68L131.02 162.47L131.14 162.26L131.28 162.06L131.41 161.86L131.56 161.67L131.71 161.49L131.87 161.31L132.04 161.14L132.21 160.97L132.39 160.81L132.58 160.66L132.77 160.51L132.96 160.37L133.17 160.24L133.37 160.12L133.59 160L133.8 159.9L134.03 159.8L134.25 159.71L134.48 159.62L134.72 159.55L134.96 159.49L135.2 159.43L135.44 159.39L135.69 159.35L135.95 159.33L136.2 159.31L136.46 159.31L148.96 159.31L149.22 159.31L149.47 159.33ZM247.12 295.44L244.26 295.61L241.44 295.9L238.65 296.3L235.9 296.81L233.19 297.42L230.51 298.13L227.88 298.95L225.3 299.87L222.76 300.89L220.28 302L217.84 303.2L215.46 304.49L213.14 305.88L210.87 307.34L208.67 308.9L206.53 310.53L204.46 312.24L202.45 314.03L200.51 315.89L198.65 317.83L196.86 319.84L195.15 321.91L193.51 324.05L191.96 326.26L190.49 328.52L189.11 330.84L187.82 333.22L186.61 335.66L185.5 338.15L184.49 340.68L183.57 343.27L182.75 345.9L182.04 348.57L181.42 351.28L180.92 354.03L180.52 356.82L180.23 359.64L180.06 362.5L180 365.38L180.06 368.27L180.23 371.12L180.52 373.94L180.92 376.73L181.42 379.48L182.04 382.2L182.75 384.87L183.57 387.5L184.49 390.08L185.5 392.62L186.61 395.1L187.82 397.54L189.11 399.92L190.49 402.24L191.96 404.51L193.51 406.71L195.15 408.85L196.86 410.93L198.65 412.93L200.51 414.87L202.45 416.73L204.46 418.52L206.53 420.24L208.67 421.87L210.87 423.42L213.14 424.89L215.46 426.27L217.84 427.56L220.28 428.77L222.76 429.88L225.3 430.89L227.88 431.81L230.51 432.63L233.19 433.35L235.9 433.96L238.65 434.47L241.44 434.86L244.26 435.15L247.12 435.32L250 435.38L390 435.38L392.88 435.32L395.74 435.15L398.56 434.86L401.35 434.47L404.1 433.96L406.81 433.35L409.49 432.63L412.12 431.81L414.7 430.89L417.24 429.88L419.72 428.77L422.16 427.56L424.54 426.27L426.86 424.89L429.13 423.42L431.33 421.87L433.47 420.24L435.54 418.52L437.55 416.73L439.49 414.87L441.35 412.93L443.14 410.93L444.85 408.85L446.49 406.71L448.04 404.51L449.51 402.24L450.89 399.92L452.18 397.54L453.39 395.1L454.5 392.62L455.51 390.08L456.43 387.5L457.25 384.87L457.96 382.2L458.58 379.48L459.08 376.73L459.48 373.94L459.77 371.12L459.94 368.27L460 365.38L459.94 362.5L459.77 359.64L459.48 356.82L459.08 354.03L458.58 351.28L457.96 348.57L457.25 345.9L456.43 343.27L455.51 340.68L454.5 338.15L453.39 335.66L452.18 333.22L450.89 330.84L449.51 328.52L448.04 326.26L446.49 324.05L444.85 321.91L443.14 319.84L441.35 317.83L439.49 315.89L437.55 314.03L435.54 312.24L433.47 310.53L431.33 308.9L429.13 307.34L426.86 305.88L424.54 304.49L422.16 303.2L419.72 302L417.24 300.89L414.7 299.87L412.12 298.95L409.49 298.13L406.81 297.42L404.1 296.81L401.35 296.3L398.56 295.9L395.74 295.61L392.88 295.44L390 295.38L390 295.38L250 295.38L247.12 295.44ZM253.49 330.5L254.9 330.64L256.3 330.84L257.68 331.09L259.03 331.4L260.37 331.76L261.68 332.17L262.97 332.63L264.24 333.13L265.49 333.69L266.7 334.29L267.89 334.94L269.06 335.63L270.19 336.36L271.29 337.14L272.36 337.96L273.4 338.81L274.4 339.71L275.37 340.64L276.3 341.61L277.2 342.61L278.05 343.65L278.87 344.72L279.64 345.82L280.38 346.95L281.07 348.11L281.72 349.3L282.32 350.52L282.87 351.76L283.38 353.03L283.84 354.32L284.25 355.64L284.61 356.98L284.91 358.33L285.17 359.71L285.37 361.1L285.51 362.51L285.6 363.94L285.62 365.38L285.6 366.82L285.51 368.25L285.37 369.66L285.17 371.06L284.91 372.43L284.61 373.79L284.25 375.12L283.84 376.44L283.38 377.73L282.87 379L282.32 380.24L281.72 381.46L281.07 382.65L280.38 383.81L279.64 384.95L278.87 386.05L278.05 387.12L277.2 388.15L276.3 389.16L275.37 390.13L274.4 391.06L273.4 391.95L272.36 392.81L271.29 393.63L270.19 394.4L269.06 395.14L267.89 395.83L266.7 396.47L265.49 397.07L264.24 397.63L262.97 398.14L261.68 398.6L260.37 399.01L259.03 399.36L257.68 399.67L256.3 399.92L254.9 400.12L253.49 400.27L252.07 400.35L250.62 400.38L249.18 400.35L247.76 400.27L246.35 400.12L244.95 399.92L243.57 399.67L242.22 399.36L240.88 399.01L239.57 398.6L238.28 398.14L237.01 397.63L235.76 397.07L234.55 396.47L233.36 395.83L232.19 395.14L231.06 394.4L229.96 393.63L228.89 392.81L227.85 391.95L226.85 391.06L225.88 390.13L224.95 389.16L224.05 388.15L223.2 387.12L222.38 386.05L221.61 384.95L220.87 383.81L220.18 382.65L219.53 381.46L218.93 380.24L218.38 379L217.87 377.73L217.41 376.44L217 375.12L216.64 373.79L216.34 372.43L216.08 371.06L215.88 369.66L215.74 368.25L215.65 366.82L215.62 365.38L215.65 363.94L215.74 362.51L215.88 361.1L216.08 359.71L216.34 358.33L216.64 356.98L217 355.64L217.41 354.32L217.87 353.03L218.38 351.76L218.93 350.52L219.53 349.3L220.18 348.11L220.87 346.95L221.61 345.82L222.38 344.72L223.2 343.65L224.05 342.61L224.95 341.61L225.88 340.64L226.85 339.71L227.85 338.81L228.89 337.96L229.96 337.14L231.06 336.36L232.19 335.63L233.36 334.94L234.55 334.29L235.76 333.69L237.01 333.13L238.28 332.63L239.57 332.17L240.88 331.76L242.22 331.4L243.57 331.09L244.95 330.84L246.35 330.64L247.76 330.5L249.18 330.41L250.62 330.38L252.07 330.41L253.49 330.5ZM387.1 330.5L388.52 330.64L389.91 330.84L391.29 331.09L392.64 331.4L393.98 331.76L395.29 332.17L396.59 332.63L397.85 333.13L399.1 333.69L400.31 334.29L401.51 334.94L402.67 335.63L403.8 336.36L404.9 337.14L405.97 337.96L407.01 338.81L408.01 339.71L408.98 340.64L409.91 341.61L410.81 342.61L411.66 343.65L412.48 344.72L413.26 345.82L413.99 346.95L414.68 348.11L415.33 349.3L415.93 350.52L416.48 351.76L416.99 353.03L417.45 354.32L417.86 355.64L418.22 356.98L418.52 358.33L418.78 359.71L418.98 361.1L419.12 362.51L419.21 363.94L419.24 365.38L419.21 366.82L419.12 368.25L418.98 369.66L418.78 371.06L418.52 372.43L418.22 373.79L417.86 375.12L417.45 376.44L416.99 377.73L416.48 379L415.93 380.24L415.33 381.46L414.68 382.65L413.99 383.81L413.26 384.95L412.48 386.05L411.66 387.12L410.81 388.15L409.91 389.16L408.98 390.13L408.01 391.06L407.01 391.95L405.97 392.81L404.9 393.63L403.8 394.4L402.67 395.14L401.51 395.83L400.31 396.47L399.1 397.07L397.85 397.63L396.59 398.14L395.29 398.6L393.98 399.01L392.64 399.36L391.29 399.67L389.91 399.92L388.52 400.12L387.1 400.27L385.68 400.35L384.24 400.38L382.79 400.35L381.37 400.27L379.96 400.12L378.56 399.92L377.19 399.67L375.83 399.36L374.49 399.01L373.18 398.6L371.89 398.14L370.62 397.63L369.37 397.07L368.16 396.47L366.97 395.83L365.81 395.14L364.67 394.4L363.57 393.63L362.5 392.81L361.46 391.95L360.46 391.06L359.49 390.13L358.56 389.16L357.67 388.15L356.81 387.12L355.99 386.05L355.22 384.95L354.48 383.81L353.79 382.65L353.15 381.46L352.54 380.24L351.99 379L351.48 377.73L351.02 376.44L350.61 375.12L350.25 373.79L349.95 372.43L349.69 371.06L349.5 369.66L349.35 368.25L349.27 366.82L349.24 365.38L349.27 363.94L349.35 362.51L349.5 361.1L349.69 359.71L349.95 358.33L350.25 356.98L350.61 355.64L351.02 354.32L351.48 353.03L351.99 351.76L352.54 350.52L353.15 349.3L353.79 348.11L354.48 346.95L355.22 345.82L355.99 344.72L356.81 343.65L357.67 342.61L358.56 341.61L359.49 340.64L360.46 339.71L361.46 338.81L362.5 337.96L363.57 337.14L364.67 336.36L365.81 335.63L366.97 334.94L368.16 334.29L369.37 333.69L370.62 333.13L371.89 332.63L373.18 332.17L374.49 331.76L375.83 331.4L377.19 331.09L378.56 330.84L379.96 330.64L381.37 330.5L382.79 330.41L384.24 330.38L385.68 330.41L387.1 330.5Z" id="a4MZAXqzm"></path></defs><g><g><g><use xlink:href="#b109WDbiSv" opacity="1" fill="url(#gradientaEB3ayk9)"></use><g><use xlink:href="#b109WDbiSv" opacity="1" fill-opacity="0" stroke="#000000" stroke-width="1" stroke-opacity="0"></use></g></g><g><use xlink:href="#cnCyFjHuU" opacity="1" fill="#000000" fill-opacity="0"></use><g><use xlink:href="#cnCyFjHuU" opacity="1" fill-opacity="0" stroke="#ffffff" stroke-width="27" stroke-opacity="1"></use></g></g><g><use xlink:href="#a4MZAXqzm" opacity="1" fill="#ffffff" fill-opacity="1"></use></g></g></g></svg>